<?xml version="1.0"?>
<svg xmlns="http://www.w3.org/2000/svg" id="outline" enable-background="new 0 0 512 512" height="512px" viewBox="0 0 512 512" width="512px"><g><path d="m200 112h112c4.4179688 0 8-3.5820313 8-8s-3.5820313-8-8-8h-112c-4.4179688 0-8 3.5820313-8 8s3.5820313 8 8 8z" data-original="#000000" class="active-path" data-old_color="#000000" fill="#5B43D6"/><path d="m296 48h112c4.4179688 0 8-3.5820313 8-8s-3.5820313-8-8-8h-112c-4.4179688 0-8 3.5820313-8 8s3.5820313 8 8 8z" data-original="#000000" class="active-path" data-old_color="#000000" fill="#5B43D6"/><path d="m232 128h-32c-4.4179688 0-8 3.5820313-8 8s3.5820313 8 8 8h32c4.4179688 0 8-3.5820313 8-8s-3.5820312-8-8-8z" data-original="#000000" class="active-path" data-old_color="#000000" fill="#5B43D6"/><path d="m312 128h-32c-4.4179688 0-8 3.5820313-8 8s3.5820313 8 8 8h32c4.4179688 0 8-3.5820313 8-8s-3.5820312-8-8-8z" data-original="#000000" class="active-path" data-old_color="#000000" fill="#5B43D6"/><path d="m504 32h-56v-24c0-4.4179688-3.5820313-8-8-8h-176c-4.4179688 0-8 3.5820313-8 8v24h-248c-4.4179688 0-8 3.5820313-8 8v240c0 4.4179688 3.5820313 8 8 8h118.0019531c-3.9423828 10.0915527-6.0019531 20.9504395-6.0019531 32v8c0 2.8044434.4880371 5.4960938 1.3762207 8h-41.3762207c-13.2333984 0-24 10.7666016-24 24 0 10.4289551 6.6889648 19.3212891 16 22.6237793v121.3762207c0 4.4179688 3.5820313 8 8 8h32c4.4179688 0 8-3.5820313 8-8v-120h19.347168l11.6782227 81.7475586c-8.7993165 3.5620117-15.0253907 12.1914062-15.0253907 22.2524414v16c0 4.4179688 3.5820313 8 8 8h64c13.2333984 0 24-10.7666016 24-24 0-4.1264648-1.0473633-8.0126953-2.8894043-11.4077148l26.8894043-4.4819336 26.8894043 4.4819336c-1.842041 3.3950195-2.8894043 7.28125-2.8894043 11.4077148 0 13.2333984 10.7666016 24 24 24h64c4.4179688 0 8-3.5820313 8-8v-16c0-10.0610352-6.2260742-18.6904297-15.0253906-22.2524414l11.6774902-81.7475586h19.3479004v120c0 4.4179688 3.5820313 8 8 8h32c4.4179688 0 8-3.5820313 8-8v-121.3762207c9.3110352-3.3024902 16-12.1948242 16-22.6237793 0-13.2333984-10.7666016-24-24-24h-41.3762207c.8881836-2.5039062 1.3762207-5.1955566 1.3762207-8v-8c0-11.0537109-2.0610352-21.9165039-5.9997559-32h117.9997559c4.4179688 0 8-3.5820313 8-8v-240c0-4.4179687-3.5820312-8-8-8zm-56 64v-48h48v168h-16v-16-48c0-4.4179688-3.5820313-8-8-8h-48c-.1245117 0-.244873.0219727-.3686523.0275879-.203125.0092773-.4052734.020752-.6083984.0456543-.197998.0244141-.3916016.0610352-.5856934.0998535-.1882324.0375977-.3752441.076416-.5615234.1276855-.2033691.0561523-.4006348.1252441-.5979004.1967773-.1123047.0410156-.2280273.0656738-.3393555.1118164-.0610352.0253906-.114502.0615234-.1745605.0881348-.1921387.0852051-.3762207.1833496-.560791.2832031-.1645508.0888672-.3288574.1760254-.4853516.2756348-.1682129.1066895-.3266602.2255859-.4863281.3444824-.1542969.1149902-.3088379.2282715-.4538574.3532715-.1469727.1269531-.282959.2651367-.4206543.402832s-.2758789.2736816-.402832.4206543c-.125.1450195-.2382813.2995605-.3532715.4538574-.1188965.159668-.237793.3181152-.3444824.4863281-.0996094.1564941-.1867676.3208008-.2756348.4853516-.0998535.1845703-.197998.3686523-.2832031.560791-.0266113.0600586-.0627441.1135254-.0881348.1745605-.0461426.1113281-.0708008.2268066-.1118164.3393555-.0715332.1972656-.1403809.3945313-.1967773.5979004-.0512695.1867676-.090332.3735352-.1276855.5620117-.0388184.1936035-.0754395.3867188-.0998535.5842285-.0251465.2043457-.0366211.4077148-.0458984.6125488-.0056155.1225588-.027344.2419435-.027344.3654787v48 16h-16v-32c0-4.4179688-3.5820313-8-8-8h-8v-24c0-4.4179688-3.5820313-8-8-8h-24v-16h64c17.6445313 0 32-14.3554687 32-32zm16 84.6855469-20.6855469-20.6855469h20.6855469zm-32-9.3710938 20.6855469 20.6855469h-20.6855469zm-72.3740234 140.6855469c-1.1638184-12.7094727-5.0788574-25.0283203-11.4970703-35.9990234-5.3303223-9.2341309-12.2214355-17.2983398-20.2380371-23.9130859 4.1855469 1.4716797 8.2412109 3.3232422 12.1013184 5.5556641 10.9238281 6.3242188 20.0400391 15.4404297 26.3818359 26.3964844 4.9726563 8.4980469 8.09375 18.0380859 9.1875 27.9599609h-15.9355469zm-47.6259766 152v-33.3598633c3.3432617-1.1811523 6.390625-3.1088867 8.9375-5.7036133 4.5546875-4.4716796 7.0625-10.4824218 7.0625-16.9365234 0-4.3574219-1.1733398-8.4436035-3.2116699-11.9699707 6.9733887-2.78125 13.3527832-6.9672852 18.7624512-12.4265137 5.3115234-5.2626953 9.4272461-11.416748 12.2138672-18.1367188.9946289 3.3793945 1.5151367 6.9165039 1.5146484 10.5322266 0 .0039063.0004883.0078125.0004883.0117188-.0004883 1.7255859-.1289063 3.432373-.3999023 5.2578125l-11.8186036 82.7314453zm-145.0615234 0-11.8251953-82.7734375c-.2636719-1.7832031-.3925781-3.4921875-.3925781-5.2265625 0-3.6142578.5202637-7.1494141 1.5136719-10.5270996 2.7800293 6.7077637 6.8811035 12.8444824 12.1630859 18.0778809 5.4365234 5.4865723 11.8288574 9.6855469 18.8083496 12.4733887-2.0878907 3.5812988-3.2058106 7.6787109-3.2058106 11.97583 0 10.4289551 6.6889648 19.3212891 16 22.6237793v33.3762207zm173.3564453-384c-2.7304688 4.7089844-4.2949219 10.1757813-4.2949219 16v142.0361328c-9.3730469-3.6577148-19.3432617-5.7006836-29.4541016-5.9941406 2.418457-5.0539551 4.0688477-10.4562988 4.875-16.0419922h.5791016c4.4179688 0 8-3.5820313 8-8s-3.5820313-8-8-8h-.5805664c-3.519043-24.4870605-22.932373-43.9003906-47.4194336-47.4194336v-.5805664c0-4.4179688-3.5820313-8-8-8s-8 3.5820313-8 8v.5805664c-24.4870605 3.519043-43.9003906 22.932373-47.4194336 47.4194336h-.5805664c-4.4179688 0-8 3.5820313-8 8s3.5820313 8 8 8h.5791016c.8061523 5.5856934 2.456543 10.9880371 4.875 16.0419922-10.1105957.293457-20.0805664 2.3364258-29.4541016 5.9943848v-142.036377c0-8.8222656 7.1777344-16 16-16zm3.7050781 256h-33.3762207c.8881836-2.5039062 1.3762207-5.1955566 1.3762207-8v-32c0-13.2333984-10.7666016-24-24-24h-64c-13.2333984 0-24 10.7666016-24 24v32c0 2.8044434.4880371 5.4960938 1.3762207 8h-33.3762207v-16c0-12.6728516 3.3554688-25.1083984 9.7285156-36.0009766 11.5878906-20.0751953 32.1669922-33.3974609 54.9941406-35.6308594 2.1406251-.1855468 19.1386719-.368164 23.2773438-.368164s21.1367188.1826172 23.2207031.3623047c22.8828125 2.2392578 43.4619141 15.5615234 55.0742188 35.6777344 6.3496094 10.8515625 9.7050781 23.2871093 9.7050781 35.9599609zm-32 72c0 2.1347656-.8164063 4.1035156-2.2988281 5.5458984-.0527344.0507813-.1054688.1035156-.15625.15625-1.4414063 1.4814454-3.4101563 2.2978516-5.5449219 2.2978516h-96c-4.4111328 0-8-3.5888672-8-8 0-2.1337891.8164063-4.1035156 2.2998047-5.546875.0527344-.0507813.1044922-.1025391.1552734-.1552734 1.4414063-1.4814453 3.4101563-2.2978516 5.5449219-2.2978516h32 32 32c4.4111328 0 8 3.5888672 8 8zm-96-80v-32c0-4.4111328 3.5888672-8 8-8h64c4.4111328 0 8 3.5888672 8 8v32c0 4.4111328-3.5888672 8-8 8h-8v-8c0-6.453125-2.5078125-12.4638672-7.0634766-16.9375-4.4707031-4.5546875-10.4814453-7.0625-16.9365234-7.0625-13.2333984 0-24 10.7666016-24 24v8h-8c-4.4111328 0-8-3.5888672-8-8zm48 56h-16v-56c0-4.4111328 3.5888672-8 8-8 2.1347656 0 4.1035156.8164063 5.5449219 2.2978516.0507813.0527344.1025391.1044922.1552734.1552734 1.4833985 1.4433594 2.2998047 3.4130859 2.2998047 5.546875zm-32-32v32h-24c-10.7255859 0-20.7539063-4.1591797-28.2890625-11.7626953-5.6357422-5.5849609-9.3818359-12.5859375-10.9199219-20.2373047zm72 32h-24v-32h63.2089844c-1.5410156 7.6542969-5.296875 14.6669922-10.9716797 20.2890625-7.4833984 7.5517578-17.5117188 11.7109375-28.2373047 11.7109375zm-24-152v.3840332c-4.8100586-.265625-22.8181152-.3840332-24-.3840332-1.1779785 0-19.0727539.1174316-24 .385498v-.385498h-7.911377c-3.6052246-4.7404785-6.0925293-10.199707-7.2800293-16h78.3828125c-1.1875 5.800293-3.6748047 11.2595215-7.2800293 16zm-16-32v-31.1950684c15.6496582 3.1896973 28.0053711 15.5454102 31.1950684 31.1950684zm-16 0h-31.1950684c3.1896973-15.6496582 15.5454102-28.0053711 31.1950684-31.1950684zm-75.9951172 57.6455078c3.8554688-2.2297363 7.9055176-4.0795898 12.0849609-5.5505371-8.0014648 6.6052246-14.8789063 14.6542969-20.1953125 23.8649902-6.4375 11.0048828-10.355957 23.3295898-11.5202637 36.0400391h-15.935791c1.0947266-9.9228516 4.21875-19.46875 9.2060547-27.9921875 6.3232422-10.9238281 15.4394532-20.0400391 26.3603516-26.3623047zm43.9951172 174.3544922h32v25.2224121l-32 5.3334961zm48 0h32v30.5559082l-32-5.3334961zm120-336c0 5.826416 1.572998 11.2893066 4.3051758 16h-36.3051758v-16c0-8.8222656 7.1777344-16 16-16s16 7.1777344 16 16zm48-80v80c0 8.8222656-7.1777344 16-16 16s-16-7.1777344-16-16c0-17.6445313-14.3554688-32-32-32h-96v-48zm-176 32v16h-64c-17.6445313 0-32 14.3554688-32 32v96h-24c-4.4179688 0-8 3.5820313-8 8v24h-24v-152c0-4.4179688-3.5820313-8-8-8 0 0-47.7679367 0-47.9992981.0189133-4.3524857.3558883-8.0007019 3.3972244-8.0007019 7.9810867v128h-24v-152zm-200 80h20.6855469l-20.6855469 20.6855469zm32-27.3144531-20.6855469-20.6855469h20.6855469zm-32-9.3720703 20.6865234 20.6865234h-20.6865234zm32 48.0009765v20.6855469h-20.6855469zm-72 76.6855469h32c4.4179688 0 8-3.5820313 8-8v-32h32v56c0 4.4179688 3.5820313 8 8 8h40c4.4179688 0 8-3.5820313 8-8v-24h16v38.2646484c-10.2685547 6.7004395-19.052002 15.4855957-25.7363281 25.7353516h-118.2636719zm120 112h16v8h-8c-4.4111328 0-8-3.5888672-8-8zm-56 24h64.4199219c-2.5380859 5.0087891-4.2626953 10.3964844-5.1044922 16h-59.3154297c-4.4111328 0-8-3.5888672-8-8s3.5888672-8 8-8zm24 144h-16v-112h16zm48-8c0-4.4111328 3.5888672-8 8-8h25.3762207c-.8881836 2.5039063-1.3762207 5.1955566-1.3762207 8s.4880371 5.4960938 1.3762207 8h-33.3762207zm56 8c-4.4111328 0-8-3.5888672-8-8s3.5888672-8 8-8 8 3.5888672 8 8-3.5888672 8-8 8zm88-8c0-4.4089355 3.5854492-7.9960938 7.9936523-7.9997559.0053711 0 .0107422.0007324.0161133.0007324.001709 0 .003418-.0002441.005127-.0002441 4.4042969.0080567 7.9851074 3.5930176 7.9851074 7.9992676 0 4.4111328-3.5888672 8-8 8s-8-3.5888672-8-8zm64 8h-33.3762207c.8881836-2.5039062 1.3762207-5.1955566 1.3762207-8s-.4880371-5.4960938-1.3762207-8h25.3762207c4.4111328 0 8 3.5888672 8 8zm48 0v-112h16v112zm32-136c0 4.4111328-3.5888672 8-8 8h-59.3154297c-.8417969-5.6025391-2.5654297-10.9912109-5.1044922-16h64.4199219c4.4111328 0 8 3.5888672 8 8zm-80-24v-8h16c0 4.4111328-3.5888672 8-8 8zm17.7348633-64c-6.6940918-10.2597656-15.4729004-19.0385742-25.7348633-25.7353516v-86.2646484h16v24c0 4.4179688 3.5820313 8 8 8h8v32c0 4.4179688 3.5820313 8 8 8h32c4.4179688 0 8-3.5820313 8-8v-16h32v16c0 4.4179688 3.5820313 8 8 8h24v40z" data-original="#000000" class="active-path" data-old_color="#000000" fill="#5B43D6"/></g> </svg>
