<?xml version="1.0" standalone="no"?>
<!DOCTYPE svg PUBLIC "-//W3C//DTD SVG 20010904//EN"
 "http://www.w3.org/TR/2001/REC-SVG-20010904/DTD/svg10.dtd">
<svg version="1.0" xmlns="http://www.w3.org/2000/svg"
 width="200.000000pt" height="200.000000pt" viewBox="0 0 200.000000 200.000000"
 preserveAspectRatio="xMidYMid meet">
<metadata>
Created by potrace 1.11, written by Peter Selinger 2001-2013
</metadata>
<g transform="translate(0.000000,200.000000) scale(0.100000,-0.100000)"
fill="#000000" stroke="none">
<path d="M877 1889 c-328 -46 -614 -279 -723 -589 -40 -116 -53 -203 -49 -330
7 -239 93 -437 261 -605 110 -109 227 -180 369 -225 98 -30 142 -35 290 -34
110 1 144 5 218 28 300 90 518 298 613 586 33 98 39 143 39 275 0 169 -22 267
-88 400 -125 251 -350 424 -630 485 -64 14 -227 19 -300 9z m309 -34 c294 -68
517 -257 631 -535 27 -66 36 -97 50 -175 13 -65 11 -247 -2 -310 -62 -297
-251 -527 -533 -648 -93 -39 -183 -58 -297 -63 -251 -9 -476 79 -654 256 -346
344 -343 902 6 1243 143 140 319 222 533 250 55 7 202 -3 266 -18z"/>
<path d="M568 1132 c-28 -6 -22 -39 7 -44 28 -6 35 -1 35 23 0 19 -16 27 -42
21z"/>
<path d="M1083 1133 c-18 -6 -16 -43 1 -43 8 0 21 -3 30 -6 12 -5 16 0 16 19
0 25 -22 38 -47 30z"/>
<path d="M210 1000 l0 -110 30 0 30 0 0 110 0 110 -30 0 -30 0 0 -110z"/>
<path d="M880 1000 l0 -110 30 0 30 0 0 110 0 110 -30 0 -30 0 0 -110z"/>
<path d="M950 1084 c0 -21 4 -25 20 -21 17 4 20 0 20 -29 0 -27 -4 -34 -20
-34 -13 0 -20 -7 -20 -20 0 -11 4 -20 9 -20 5 0 15 -16 21 -35 10 -29 16 -35
41 -35 32 0 35 7 17 45 -8 18 -18 25 -30 22 -10 -3 -18 -1 -18 4 0 5 8 9 18 9
27 0 42 20 42 57 0 51 -26 83 -66 83 -30 0 -34 -3 -34 -26z"/>
<path d="M379 1060 c-1 -3 -2 -33 -3 -68 -1 -53 2 -66 20 -83 15 -14 29 -19
43 -14 24 7 28 33 6 41 -10 4 -15 18 -14 38 4 82 0 96 -26 94 -14 -1 -26 -5
-26 -8z"/>
<path d="M469 1041 c-1 -36 -1 -102 0 -129 1 -19 6 -23 29 -20 27 3 27 3 29
86 1 45 -1 83 -5 83 -44 8 -52 5 -53 -20z"/>
<path d="M555 1062 c-3 -3 -5 -43 -5 -89 l0 -83 30 0 30 0 0 89 c0 87 0 89
-25 89 -13 0 -27 -3 -30 -6z"/>
<path d="M651 1044 c-32 -41 -1 -95 50 -87 28 4 29 2 29 -32 0 -44 22 -45 48
-2 16 25 16 29 0 55 -13 21 -24 27 -50 27 -30 0 -33 3 -36 33 -4 39 -14 40
-41 6z"/>
<path d="M703 1053 c-7 -19 -2 -23 41 -30 29 -4 36 -2 36 10 0 30 -67 47 -77
20z"/>
<path d="M1079 1061 c-1 -3 -3 -43 -5 -88 l-3 -83 30 0 c16 0 29 6 30 13 4 51
3 157 -1 158 -20 5 -50 5 -51 0z"/>
<path d="M1150 1051 c0 -9 11 -48 23 -87 20 -59 27 -69 49 -72 23 -3 28 3 46
51 11 29 23 69 27 88 6 33 5 35 -19 35 -22 0 -28 -7 -38 -40 l-11 -41 -10 35
c-13 44 -11 42 -42 45 -18 2 -25 -1 -25 -14z m87 -93 c-3 -8 -6 -5 -6 6 -1 11
2 17 5 13 3 -3 4 -12 1 -19z"/>
<path d="M1336 1051 c-9 -10 -19 -39 -21 -64 -4 -39 -1 -50 20 -74 21 -24 26
-26 35 -13 6 10 10 11 10 3 0 -20 67 -16 74 3 4 9 5 18 3 20 -6 7 -63 8 -73 1
-7 -4 -11 6 -12 25 0 20 2 27 7 19 5 -7 23 -11 47 -9 34 3 38 6 40 31 1 37
-31 78 -59 73 -27 -4 -38 -46 -12 -46 21 0 14 -24 -8 -28 -14 -3 -17 5 -17 37
0 45 -8 51 -34 22z"/>
<path d="M1490 978 l0 -88 30 0 31 0 -3 87 -3 87 -27 1 -28 2 0 -89z"/>
<path d="M1572 1058 c-15 -15 -16 -38 -2 -38 6 0 10 -9 10 -20 0 -16 7 -20 30
-20 25 0 30 4 30 23 0 27 -26 67 -44 67 -6 0 -17 -5 -24 -12z"/>
<path d="M1681 1062 c-6 -2 -11 -12 -11 -23 0 -16 7 -19 40 -19 29 0 40 -4 40
-15 0 -10 -10 -14 -35 -13 -20 1 -40 -3 -45 -8 -15 -15 -18 -57 -6 -76 14 -22
62 -24 70 -2 9 22 8 24 -9 24 -8 0 -15 7 -15 15 0 8 6 15 14 15 8 0 17 6 19
13 3 6 6 -9 6 -35 1 -46 2 -48 29 -48 l28 0 -1 70 c0 83 -16 105 -74 105 -21
1 -44 -1 -50 -3z"/>
<path d="M331 962 c-25 -9 -51 -36 -51 -54 0 -14 8 -18 40 -18 39 0 40 1 40
34 0 37 -7 46 -29 38z"/>
<path d="M640 934 c0 -3 5 -14 10 -25 15 -26 70 -27 70 0 0 11 -9 21 -22 25
-29 7 -58 8 -58 0z"/>
</g>
</svg>
